<svg width="169" height="51" viewBox="0 0 169 51" fill="none" xmlns="http://www.w3.org/2000/svg">
<rect x="0.75" y="0.75" width="167.5" height="49.5" stroke="white" stroke-width="0.5"/>
<path d="M23.0723 17.8516H16.0234V40H12.1387V17.8516H5.07227V14.3711H23.0723V17.8516ZM45.7129 40H41.8281V28.8027H31.4219V40H27.5195V14.3711H31.4219V25.3047H41.8281V14.3711H45.7129V40ZM68.793 40H52.4102V14.3711H68.793V17.8516H56.3125V25.3398H66.9648V28.8027H56.3125V36.502H68.793V40ZM100.223 32.3359C100.012 33.6016 99.6309 34.7324 99.0801 35.7285C98.541 36.7129 97.873 37.5391 97.0762 38.207C96.291 38.8633 95.3828 39.3613 94.3516 39.7012C93.332 40.041 92.2422 40.2109 91.082 40.2109C90.1914 40.2109 89.3477 40.1113 88.5508 39.9121C87.7656 39.7012 87.0098 39.3848 86.2832 38.9629C85.5566 38.541 84.9121 38.0488 84.3496 37.4863C83.5527 36.666 82.9785 35.793 82.627 34.8672C82.2754 33.9414 82.0586 32.9395 81.9766 31.8613C81.8945 30.7715 81.8535 29.2129 81.8535 27.1855C81.8535 25.627 81.8711 24.3906 81.9062 23.4766C81.9531 22.5625 82.0469 21.7246 82.1875 20.9629C82.3398 20.2012 82.5801 19.4922 82.9082 18.8359C83.248 18.168 83.7285 17.5176 84.3496 16.8848C85.2402 15.9941 86.2539 15.3203 87.3906 14.8633C88.5273 14.3945 89.7578 14.1602 91.082 14.1602C93.4844 14.1602 95.4941 14.8398 97.1113 16.1992C98.7402 17.5586 99.7773 19.5039 100.223 22.0352H96.25C95.9453 20.6875 95.3477 19.6211 94.457 18.8359C93.5781 18.0391 92.4531 17.6406 91.082 17.6406C90.332 17.6406 89.623 17.7754 88.9551 18.0449C88.2988 18.3145 87.7422 18.6953 87.2852 19.1875C86.9453 19.5625 86.6816 19.9434 86.4941 20.3301C86.3066 20.7051 86.1543 21.209 86.0371 21.8418C85.9199 22.4629 85.8379 23.166 85.791 23.9512C85.7559 24.7363 85.7383 25.8145 85.7383 27.1855C85.7383 28.5449 85.7559 29.6172 85.791 30.4023C85.8379 31.1758 85.9199 31.8789 86.0371 32.5117C86.1543 33.1445 86.3066 33.6484 86.4941 34.0234C86.6816 34.3867 86.9453 34.7734 87.2852 35.1836C87.7422 35.6641 88.2988 36.0449 88.9551 36.3262C89.623 36.5957 90.332 36.7305 91.082 36.7305C92.0078 36.7305 92.8223 36.5488 93.5254 36.1855C94.2285 35.8223 94.8145 35.3066 95.2832 34.6387C95.752 33.9707 96.0859 33.2031 96.2852 32.3359H100.223ZM122.898 27.1855C122.898 29.2129 122.857 30.7656 122.775 31.8438C122.705 32.9102 122.494 33.918 122.143 34.8672C121.791 35.8047 121.229 36.6777 120.455 37.4863C118.615 39.3027 116.359 40.2109 113.688 40.2109C111.016 40.2109 108.771 39.3027 106.955 37.4863C106.158 36.666 105.584 35.793 105.232 34.8672C104.881 33.9414 104.664 32.9395 104.582 31.8613C104.5 30.7715 104.459 29.2129 104.459 27.1855C104.459 25.627 104.477 24.3906 104.512 23.4766C104.559 22.5625 104.652 21.7246 104.793 20.9629C104.945 20.2012 105.186 19.4922 105.514 18.8359C105.854 18.168 106.334 17.5176 106.955 16.8848C108.771 15.0684 111.016 14.1602 113.688 14.1602C116.359 14.1602 118.615 15.0684 120.455 16.8848C121.24 17.7051 121.803 18.584 122.143 19.5215C122.494 20.4473 122.705 21.4492 122.775 22.5273C122.857 23.6055 122.898 25.1582 122.898 27.1855ZM119.014 27.1855C119.014 24.6309 118.914 22.832 118.715 21.7891C118.527 20.7461 118.123 19.8906 117.502 19.2227C117.057 18.7422 116.488 18.3613 115.797 18.0801C115.117 17.7871 114.414 17.6406 113.688 17.6406C112.949 17.6406 112.234 17.7871 111.543 18.0801C110.863 18.3613 110.301 18.7422 109.855 19.2227C109.234 19.9141 108.824 20.7754 108.625 21.8066C108.438 22.8379 108.344 24.6309 108.344 27.1855C108.344 28.5449 108.361 29.6348 108.396 30.4551C108.443 31.2637 108.525 31.9727 108.643 32.582C108.76 33.1914 108.9 33.666 109.064 34.0059C109.229 34.3457 109.492 34.7266 109.855 35.1484C110.324 35.6406 110.893 36.0273 111.561 36.3086C112.24 36.5898 112.949 36.7305 113.688 36.7305C115.234 36.7305 116.506 36.2031 117.502 35.1484C117.924 34.6914 118.24 34.1699 118.451 33.584C118.674 32.998 118.82 32.2012 118.891 31.1934C118.973 30.1855 119.014 28.8496 119.014 27.1855ZM143.465 40H127.047V36.6602L138.895 17.8516H127.557V14.3711H143.465V17.5352L131.547 36.502H143.465V40ZM164.594 14.3711L156.93 29.4531V40H153.027V29.4531L145.363 14.3711H149.617L154.979 25.6387L160.34 14.3711H164.594Z" fill="white"/>
</svg>
